<svg xmlns="http://www.w3.org/2000/svg" fill="none" viewBox="0 0 221 226"><g style="mix-blend-mode:overlay"><path fill="#000" fill-opacity=".16" d="M113.006 219.445c.717-.246.931-1.151.427-1.718a53 53 0 0 1-6.217-8.562c-5.076-7.927-13.47-26.237-13.97-46.598a1.096 1.096 0 0 0-1.62-.931c-18.086 9.942-38.462 11.901-47.976 11.49a53.7 53.7 0 0 1-9.412-.851c-.75-.135-1.41.526-1.242 1.268q6.475 28.622 30.53 41.967 23.316 12.935 49.48 3.935m66.975-88.913a1.037 1.037 0 0 0 1.644-.005q7.23-9.543 10.126-21.601 3.315-13.795.349-27.702a1.07 1.07 0 0 1 .75-1.253l18.559-5.237q4.882-1.378 7.168-5.452 2.286-4.075.901-8.928t-5.483-7.127-8.979-.896l-21.098 5.953a1.06 1.06 0 0 1-1.12-.365q-10.651-13.45-21.936-19.555-11.214-6.068-25.795-6.404a1.07 1.07 0 0 1-1.002-.77l-6.178-21.648q-1.385-4.853-5.482-7.127-4.098-2.272-8.979-.895-4.882 1.377-7.168 5.451-2.286 4.075-.9 8.929l5.265 18.45a1.07 1.07 0 0 1-.673 1.297q-13.457 4.807-23.42 15.22-7.914 8.27-12.233 18.256a1.037 1.037 0 0 0 .835 1.438l63.367 7.766c.276.034.529.176.701.395zM43.454 77.412a42.9 42.9 0 0 0-29.926 12.456A42.4 42.4 0 0 0 1 119.943a42.4 42.4 0 0 0 12.528 30.074 42.9 42.9 0 0 0 30.245 12.458l.246.005c9.927.455 34.018-2.262 51.238-16.01q.151-.121.25-.289l33.303-56.823a1.055 1.055 0 0 0-.782-1.582zm61.069 74.694q.03-.204.134-.382l32.732-55.849a1.055 1.055 0 0 1 1.741-.117l51.518 65.694a1 1 0 0 1 .086.13 42.32 42.32 0 0 1 4.055 31.894c-2.936 10.896-10.104 20.186-19.928 25.826a43 43 0 0 1-32.457 4.249c-10.958-2.92-20.3-10.048-25.972-19.817l-.128-.209c-5.301-8.231-14.828-29.946-11.781-51.419"/><path stroke="#fff" stroke-opacity=".3" d="M113.006 219.445c.717-.246.931-1.151.427-1.718a53 53 0 0 1-6.217-8.562c-5.076-7.927-13.47-26.237-13.97-46.598a1.096 1.096 0 0 0-1.62-.931c-18.086 9.942-38.462 11.901-47.976 11.49a53.7 53.7 0 0 1-9.412-.851c-.75-.135-1.41.526-1.242 1.268q6.475 28.622 30.53 41.967 23.316 12.935 49.48 3.935Zm66.975-88.913a1.037 1.037 0 0 0 1.644-.005q7.23-9.543 10.126-21.601 3.315-13.795.349-27.702a1.07 1.07 0 0 1 .75-1.253l18.559-5.237q4.882-1.378 7.168-5.452 2.286-4.075.901-8.928t-5.483-7.127-8.979-.896l-21.098 5.953a1.06 1.06 0 0 1-1.12-.365q-10.651-13.45-21.936-19.555-11.214-6.068-25.795-6.404a1.07 1.07 0 0 1-1.002-.77l-6.178-21.648q-1.385-4.853-5.482-7.127-4.098-2.272-8.979-.895-4.882 1.377-7.168 5.451-2.286 4.075-.9 8.929l5.265 18.45a1.07 1.07 0 0 1-.673 1.297q-13.457 4.807-23.42 15.22-7.914 8.27-12.233 18.256a1.037 1.037 0 0 0 .835 1.438l63.367 7.766c.276.034.529.176.701.395zM43.454 77.412a42.9 42.9 0 0 0-29.926 12.456A42.4 42.4 0 0 0 1 119.943a42.4 42.4 0 0 0 12.528 30.074 42.9 42.9 0 0 0 30.245 12.458l.246.005c9.927.455 34.018-2.262 51.238-16.01q.151-.121.25-.289l33.303-56.823a1.055 1.055 0 0 0-.782-1.582zm61.069 74.694q.03-.204.134-.382l32.732-55.849a1.055 1.055 0 0 1 1.741-.117l51.518 65.694a1 1 0 0 1 .086.13 42.32 42.32 0 0 1 4.055 31.894c-2.936 10.896-10.104 20.186-19.928 25.826a43 43 0 0 1-32.457 4.249c-10.958-2.92-20.3-10.048-25.972-19.817l-.128-.209c-5.301-8.231-14.828-29.946-11.781-51.419Z"/></g></svg>
