<svg xmlns="http://www.w3.org/2000/svg" viewBox="0 0 751 146"><path fill="url(#a)" d="M72.411.61C13.203.61.521 13.292.521 72.5s12.682 71.89 71.89 71.89c59.209 0 71.89-12.682 71.89-71.89S131.62.61 72.411.61M41.286 20.577a5.2 5.2 0 0 1 5.197-5.197h10.4a5.2 5.2 0 0 1 5.197 5.197v10.354a5.2 5.2 0 0 0 5.197 5.197h10.286a5.2 5.2 0 0 0 5.198-5.197V20.577a5.2 5.2 0 0 1 5.197-5.197h10.394a5.2 5.2 0 0 1 5.198 5.197v10.399a5.2 5.2 0 0 1-5.198 5.197H88a5.2 5.2 0 0 0-5.198 5.198v10.353a5.2 5.2 0 0 1-5.197 5.198h-10.4a5.2 5.2 0 0 1-5.196-5.197V41.37a5.2 5.2 0 0 0-5.198-5.198H46.456a5.2 5.2 0 0 1-5.197-5.197V20.577zm-5.197 67.56v10.354a5.2 5.2 0 0 1-5.197 5.197h-10.4a5.2 5.2 0 0 1-5.197-5.197v-10.4a5.2 5.2 0 0 1 5.198-5.196h10.354a5.2 5.2 0 0 0 5.197-5.198V67.411a5.2 5.2 0 0 0-5.197-5.197H20.493a5.2 5.2 0 0 1-5.198-5.197v-10.4a5.2 5.2 0 0 1 5.198-5.197h10.399a5.2 5.2 0 0 1 5.197 5.198V56.97a5.2 5.2 0 0 0 5.197 5.198H51.64a5.2 5.2 0 0 1 5.197 5.197V77.76a5.2 5.2 0 0 1-5.197 5.197H41.286a5.2 5.2 0 0 0-5.197 5.197v-.022zm67.492 36.345a5.197 5.197 0 0 1-5.197 5.197H87.985a5.2 5.2 0 0 1-5.197-5.197v-10.354a5.2 5.2 0 0 0-5.198-5.197H67.304a5.2 5.2 0 0 0-5.197 5.197v10.354a5.2 5.2 0 0 1-5.197 5.197h-10.4a5.2 5.2 0 0 1-5.197-5.197v-10.399a5.2 5.2 0 0 1 5.198-5.197h10.353a5.2 5.2 0 0 0 5.198-5.198V93.334a5.2 5.2 0 0 1 5.197-5.197h10.4a5.2 5.2 0 0 1 5.197 5.197v10.354a5.2 5.2 0 0 0 5.197 5.198h10.354a5.2 5.2 0 0 1 5.197 5.197v10.399zm25.991-67.492a5.2 5.2 0 0 1-5.197 5.197h-10.354a5.2 5.2 0 0 0-5.197 5.197v10.29a5.2 5.2 0 0 0 5.197 5.198h10.354a5.2 5.2 0 0 1 5.197 5.197v10.4a5.2 5.2 0 0 1-5.197 5.197H113.98a5.2 5.2 0 0 1-5.197-5.198V88.115a5.2 5.2 0 0 0-5.197-5.198H93.232a5.2 5.2 0 0 1-5.197-5.197v-10.4a5.2 5.2 0 0 1 5.197-5.196h10.354a5.2 5.2 0 0 0 5.197-5.198V46.572a5.2 5.2 0 0 1 5.197-5.197h10.395a5.2 5.2 0 0 1 5.197 5.197z"/><path d="M497.665 32.604c.588-3.566 1.587-6.218 3.024-7.981s3.371-3 5.83-3.742l-.479-.633h-41l-.325.633c2.133.434 3.85 1.392 5.179 2.87 1.329 1.5 2.065 3.349 2.241 5.59.154 2.242-.393 4.633-1.676 7.177l-36.368 70.647c-2.024 3.936-3.782 7.027-5.265 9.242-1.5 2.242-2.978 3.959-4.46 5.179-1.501 1.216-3.309 2.305-5.415 3.263l.48.628h21.688l.325-.628c-3.416-1.369-5.373-3.85-5.893-7.416-.542-3.566.805-8.42 3.982-14.593l5.414-10.526h34.456v6.373c0 6.069-.303 10.873-.868 14.443-.588 3.566-1.586 6.219-3.024 7.982s-3.371 3-5.83 3.742l.479.628h35.889l.479-.628c-2.459-.742-4.393-2.002-5.83-3.742-1.437-1.763-2.459-4.416-3.024-7.982-.587-3.565-.867-8.374-.867-14.443v-51.68c0-6.07.284-10.873.867-14.443v.045zm-51.615 57.51 31.495-61.537c.393 1.175.719 2.522.981 4.023.587 3.565.868 8.374.868 14.444v43.065H446.05zm-23.754 16.594c0 3.765.456 7.091 1.347 10.006.61-.718 1.215-1.545 1.848-2.481 1.392-2.088 3.087-5.089 5.026-8.853l8.876-17.25c-.674-2.089-1.569-3.982-2.676-5.654-2.391-3.611-5.807-6.35-10.2-8.221-4.416-1.849-9.961-2.96-16.663-3.263v-.326c6.806 0 12.595-1.197 17.381-3.588s8.42-5.59 10.919-9.572c2.504-3.982 3.742-8.311 3.742-13.007 0-4.244-1.107-8.22-3.349-11.877-2.241-3.674-5.459-6.634-9.657-8.94-4.199-2.281-9.288-3.434-15.226-3.434h-43.219l-.479.633c2.544.741 4.546 2.002 5.979 3.742 1.437 1.74 2.413 4.438 2.96 8.049.525 3.61.805 8.46.805 14.507v51.354c0 6.069-.262 10.873-.805 14.444-.542 3.566-1.523 6.241-2.96 8.049s-3.435 3.091-5.979 3.828l.479.628h34.781l.479-.628c-2.241-.742-3.981-2.025-5.265-3.828s-2.151-4.479-2.63-8.049c-.479-3.566-.719-8.375-.719-14.444V71.887h6.698c5.744 0 10.268 1.785 13.549 5.35 3.286 3.566 4.935 8.7 4.935 15.398v14.028zm-18.991-37h-6.218V22.485h6.851c4.153 0 7.633 1.044 10.44 3.11s4.958 4.849 6.458 8.288c1.478 3.457 2.242 7.376 2.242 11.723s-.742 8.221-2.242 11.877c-1.5 3.675-3.697 6.612-6.612 8.854-2.937 2.241-6.566 3.349-10.919 3.349zM199.084 32.6c.587-3.566 1.586-6.219 3.023-7.982s3.372-3 5.83-3.742l-.479-.632H171.57l-.479.632c2.544.742 4.546 2.002 5.979 3.742 1.437 1.763 2.436 4.416 3.023 7.982s.868 8.374.868 14.444v51.679c0 6.069-.303 10.873-.868 14.444-.587 3.565-1.586 6.218-3.023 7.981s-3.435 3.001-5.979 3.742l.479.633h35.888l.479-.633c-2.458-.741-4.393-2.002-5.83-3.742s-2.458-4.416-3.023-7.981c-.588-3.566-.868-8.375-.868-14.444v-51.68c0-6.069.285-10.873.868-14.443m75.193-12.356-.479.632c2.545.742 4.547 2.002 5.979 3.742 1.437 1.763 2.436 4.416 3.024 7.982.587 3.565.872 8.374.872 14.444V93.61L234.71 20.244h-21.209l-.479.632c2.544.742 4.546 2.002 5.983 3.742s2.436 4.33 3.024 7.742c.587 3.417.867 7.873.867 13.4v55.986q0 7.667-1.044 12.528c-.696 3.24-1.74 5.699-3.109 7.33-1.392 1.654-3.304 2.739-5.744 3.263l.479.633h21.689l.479-.633c-2.35-.524-4.222-1.609-5.654-3.263-1.437-1.654-2.504-4.09-3.2-7.33q-1.044-4.861-1.044-12.528V40.341l59.968 87.247h.958V47.044c0-6.07.285-10.874.868-14.444.587-3.566 1.586-6.219 3.023-7.982s3.371-3 5.83-3.742l-.479-.632h-21.684zm27.754 0-.479.632c2.544.742 4.546 2.002 5.979 3.742 1.437 1.763 2.436 4.416 3.023 7.982s.868 8.374.868 14.444v51.679c0 6.069-.303 10.873-.868 14.444-.587 3.565-1.586 6.218-3.023 7.981s-3.435 3.001-5.979 3.742l.479.633h35.888l.479-.633c-2.458-.741-4.393-2.002-5.83-3.742s-2.458-4.416-3.023-7.981c-.588-3.566-.873-8.375-.873-14.444V74.472h8.94c5.197 0 9.115 1.392 11.723 4.153s4.655 6.851 6.133 12.288l.628-.628V56.462l-.628-.48c-1.501 5.415-3.589 9.483-6.309 12.203s-6.567 4.068-11.57 4.068h-8.939V22.485h8.614c5.197 0 9.721.85 13.553 2.545 3.828 1.694 7.155 4.22 9.961 7.57 2.807 3.349 5.288 7.524 7.416 12.527l.805-.479-4.786-24.404h-62.209zM588.039 121.93c-1.283-1.438-2.264-3.589-2.96-6.459s-1.197-6.634-1.523-11.33l-.633-7.81c-.433-5.635-1.825-10.267-4.221-13.878-2.39-3.611-5.807-6.35-10.2-8.22-4.415-1.85-9.961-2.961-16.663-3.264v-.325c6.806 0 12.596-1.198 17.382-3.589s8.419-5.59 10.918-9.572c2.5-3.981 3.743-8.31 3.743-13.006 0-4.244-1.108-8.221-3.349-11.877-2.242-3.675-5.46-6.635-9.658-8.94-4.199-2.282-9.288-3.434-15.226-3.434H512.43l-.479.632c2.545.741 4.547 2.002 5.984 3.742s2.413 4.438 2.96 8.05c.524 3.61.804 8.46.804 14.507V98.51c0 6.07-.262 10.878-.804 14.444s-1.523 6.241-2.96 8.049-3.435 3.087-5.984 3.828l.479.633h34.781l.479-.633c-2.241-.741-3.981-2.02-5.265-3.828s-2.151-4.483-2.63-8.049-.719-8.374-.719-14.444V71.864h6.698c5.744 0 10.268 1.785 13.549 5.35 3.286 3.567 4.94 8.7 4.94 15.398v14.029c0 4.569.651 8.505 2.002 11.809 1.329 3.308 3.218 5.635 5.654 7.027h20.577l.479-.632c-2.021-.525-3.675-1.523-4.936-2.961zM545.3 69.686h-6.219V22.463h6.851c4.154 0 7.634 1.044 10.44 3.109 2.807 2.065 4.958 4.85 6.458 8.289 1.478 3.457 2.242 7.375 2.242 11.723 0 4.347-.741 8.22-2.242 11.877-1.5 3.674-3.697 6.612-6.612 8.853-2.937 2.242-6.566 3.349-10.918 3.349zm111.411 42.676c-2.829 3.566-6.133 6.241-9.96 8.049s-8.289 2.721-13.4 2.721h-10.047V73.039h9.418c4.678 0 8.221 1.26 10.616 3.742 2.391 2.504 4.33 6.68 5.83 12.528l.805-.628V54.858l-.805-.48c-1.5 5.853-3.479 10.047-5.979 12.596-2.499 2.544-5.983 3.828-10.439 3.828h-9.419v-48.33h8.614c7.873 0 14.227 1.916 19.054 5.744q7.24 5.743 11.877 16.902l.804-.479-4.786-24.404h-62.209l-.479.632c2.544.741 4.546 2.002 5.979 3.742 1.437 1.74 2.436 4.416 3.024 7.982.587 3.565.867 8.374.867 14.444v51.679c0 6.069-.303 10.873-.867 14.444-.588 3.565-1.587 6.218-3.024 7.981s-3.435 3.001-5.979 3.742l.479.628h62.991l4.94-25.991-.958-.479c-1.808 5.328-4.136 9.766-6.938 13.314v.023zm87.482-67.949c-3.828-7.7-9.134-13.657-15.944-17.856-6.807-4.198-14.833-6.309-24.08-6.309H668.43l-.479.633c2.544.741 4.546 2.025 5.979 3.828 1.437 1.803 2.436 4.501 3.024 8.049.587 3.566.867 8.329.867 14.267v51.68c0 5.961-.303 10.724-.867 14.267-.588 3.566-1.587 6.241-3.024 8.049s-3.435 3.091-5.979 3.828l.479.628h36.693c8.614 0 16.292-2.327 23.058-7.027 6.743-4.678 12.071-11.05 15.944-19.14 3.873-8.071 5.83-17.268 5.83-27.604s-1.912-19.641-5.744-27.365l-.023.063zm-17.382 55.119c-2.458 7.547-5.852 13.377-10.2 17.467-4.37 4.09-9.418 6.133-15.162 6.133h-6.373V22.49h5.414c5.962 0 11.181 1.98 15.705 5.893 4.524 3.936 8.027 9.635 10.526 17.074 2.504 7.44 3.742 16.424 3.742 26.95s-1.216 19.577-3.674 27.125z"/><defs><linearGradient id="a" x1="250" x2="-78.058" y1="73.573" y2="77.902" gradientUnits="userSpaceOnUse"><stop stop-color="#F8F29C"/><stop offset=".165" stop-color="#F6DB2A"/><stop offset=".333" stop-color="#F4A435"/><stop offset=".55" stop-color="#E85A46"/><stop offset=".699" stop-color="#B93483"/><stop offset=".867" stop-color="#502B6E"/><stop offset="1" stop-color="#2A2136"/></linearGradient></defs></svg>
