<svg xmlns="http://www.w3.org/2000/svg" viewBox="0 0 128 82"><path fill="#3083DC" d="M14.105 35.5a.35.35 0 0 1-.246-.1.36.36 0 0 1-.1-.247c0-1.49-.585-2.92-1.629-3.98a5.53 5.53 0 0 0-3.927-1.647.35.35 0 0 1-.245-.102.353.353 0 0 1 .245-.598 5.5 5.5 0 0 0 3.922-1.649 5.67 5.67 0 0 0 1.628-3.971q0-.146.101-.246a.343.343 0 0 1 .487 0c.065.066.1.154.101.246 0 1.49.588 2.92 1.629 3.974a5.5 5.5 0 0 0 3.921 1.648.34.34 0 0 1 .322.216.36.36 0 0 1-.076.38.35.35 0 0 1-.245.104 5.5 5.5 0 0 0-3.922 1.648 5.67 5.67 0 0 0-1.629 3.977.356.356 0 0 1-.338.35"/><path fill="#3083DC" d="M14.105 23.206a6 6 0 0 0 1.726 4.223 5.86 5.86 0 0 0 4.167 1.75c-1.56 0-3.061.628-4.167 1.749a6 6 0 0 0-1.726 4.223 6 6 0 0 0-1.727-4.223 5.85 5.85 0 0 0-4.167-1.75c1.56 0 3.061-.628 4.167-1.749a6.02 6.02 0 0 0 1.726-4.223m0-.7a.68.68 0 0 0-.49.205.7.7 0 0 0-.2.492 5.34 5.34 0 0 1-1.525 3.729 5.17 5.17 0 0 1-3.682 1.547.69.69 0 0 0-.639.432.7.7 0 0 0-.05.267.69.69 0 0 0 .422.649.7.7 0 0 0 .267.051 5.16 5.16 0 0 1 3.68 1.547 5.3 5.3 0 0 1 1.525 3.726.704.704 0 0 0 .691.7.7.7 0 0 0 .69-.7 5.34 5.34 0 0 1 1.525-3.729A5.17 5.17 0 0 1 20 29.878a.68.68 0 0 0 .487-.205.703.703 0 0 0-.49-1.194 5.16 5.16 0 0 1-3.677-1.547 5.3 5.3 0 0 1-1.525-3.726.71.71 0 0 0-.427-.647.7.7 0 0 0-.264-.053m53.735-9.509a.353.353 0 0 1-.346-.35 5.67 5.67 0 0 0-1.629-3.974 5.53 5.53 0 0 0-3.921-1.651.35.35 0 0 1-.349-.35.35.35 0 0 1 .349-.35 5.5 5.5 0 0 0 3.921-1.648A5.67 5.67 0 0 0 67.496.7a.36.36 0 0 1 .212-.323.34.34 0 0 1 .452.189q.03.062.027.134c0 1.49.585 2.919 1.626 3.974a5.52 5.52 0 0 0 3.924 1.65q.142 0 .245.102a.356.356 0 0 1 0 .495.35.35 0 0 1-.245.1 5.5 5.5 0 0 0-3.922 1.652 5.67 5.67 0 0 0-1.63 3.974.356.356 0 0 1-.344.35"/><path fill="#3083DC" d="M67.84.7a6.03 6.03 0 0 0 1.724 4.223 5.88 5.88 0 0 0 4.17 1.75 5.84 5.84 0 0 0-4.167 1.748 6 6 0 0 0-1.727 4.226c0-1.582-.62-3.1-1.727-4.226a5.88 5.88 0 0 0-4.17-1.749 5.84 5.84 0 0 0 4.168-1.75A6.03 6.03 0 0 0 67.84.7m0-.7a.68.68 0 0 0-.49.205.7.7 0 0 0-.202.492 5.3 5.3 0 0 1-1.525 3.731 5.17 5.17 0 0 1-3.68 1.547.68.68 0 0 0-.49.205.703.703 0 0 0 .49 1.192c1.382 0 2.705.555 3.683 1.544a5.32 5.32 0 0 1 1.528 3.731.703.703 0 0 0 .691.7.7.7 0 0 0 .69-.7 5.33 5.33 0 0 1 1.525-3.723 5.17 5.17 0 0 1 3.676-1.544.68.68 0 0 0 .485-.205.704.704 0 0 0-.488-1.194 5.16 5.16 0 0 1-3.676-1.548A5.3 5.3 0 0 1 68.529.705a.71.71 0 0 0-.426-.646.7.7 0 0 0-.266-.054zm58.798 81.926L84.469 20.694l-12.157 9.272 14.848 18.86-40.971-41.09L0 81.925z"/><path fill="url(#a)" d="M45.116 56.93s2.87 7.84.923 24.996h8.263s4.651-15.62 3.235-18.611c-1.416-2.99-12.421-6.385-12.421-6.385"/><path fill="#fff" d="M89.807 67.196c-4.262-14.205-17.06-16.673-22.37-16.673-2.448 0-11.485-3.939-14.788-5.65-.463-.24-1.095-1.632-.904-2.12l.937-1.542c.255-1.066.449-2.242-.436-2.876l-1.547-.779a1.25 1.25 0 0 0-1.408.194l-1.47 1.345s-7.395-1.654-8.677-1.46c-.752.118-1.452 1.378-1.907 2.408a1.2 1.2 0 0 1-1.449.632c-2.633-.935-3.706-.629-3.706-.629s-2.315 3.045 0 5.39c17.914 18.65 23.987 14.93 26.261 36.561h8.182l3.812-8.159 6.482.06L79.91 82h12.087zm-49.912-25.57a.815.815 0 0 1-.754-.511.836.836 0 0 1 .593-1.13.815.815 0 0 1 .84.354.836.836 0 0 1-.366 1.223.8.8 0 0 1-.313.064"/><defs><linearGradient id="a" x1="47.739" x2="56.525" y1="71.57" y2="62.273" gradientUnits="userSpaceOnUse"><stop stop-color="#fff"/><stop offset=".14" stop-color="#F8F8F8"/><stop offset=".35" stop-color="#E3E3E3"/><stop offset=".6" stop-color="#C2C2C2"/><stop offset=".89" stop-color="#949494"/><stop offset="1" stop-color="gray"/></linearGradient></defs></svg>
