<svg xmlns="http://www.w3.org/2000/svg" viewBox="0 0 1024 200"><g fill-opacity=".3" clip-path="url(#a)"><ellipse cx="514" cy="241" fill="url(#b)" filter="url(#c)" rx="557" ry="63" transform="rotate(-180 514 241)"/><path fill="url(#d)" fill-rule="evenodd" d="M204.129 288.921c-169.07 0-306.129-23.487-306.129-52.46S35.059 184 204.129 184c160.592 0 292.302 21.191 305.109 48.145 35.276-2.456 74.936-3.834 116.86-3.834 54.777 0 105.689 2.353 148.008 6.388 29.066-16.195 110.189-27.85 205.718-27.85 119.946 0 217.176 18.373 217.176 41.037s-97.23 41.037-217.176 41.037c-42.029 0-81.27-2.256-114.516-6.162C822.053 295.338 731.189 304 626.098 304c-113.414 0-210.258-10.089-248.575-24.299-49.293 5.816-109.023 9.22-173.394 9.22" clip-rule="evenodd" filter="url(#e)"/></g><defs><linearGradient id="b" x1="-43" x2="1071" y1="241" y2="241" gradientUnits="userSpaceOnUse"><stop stop-color="#F5B532"/><stop offset=".5" stop-color="#EA6644"/><stop offset="1" stop-color="#9F327E"/></linearGradient><linearGradient id="d" x1="1197" x2="-102" y1="244" y2="244" gradientUnits="userSpaceOnUse"><stop stop-color="#F5B532"/><stop offset=".5" stop-color="#EA6644"/><stop offset="1" stop-color="#9F327E"/></linearGradient><filter id="c" width="1354" height="366" x="-163" y="58" color-interpolation-filters="sRGB" filterUnits="userSpaceOnUse"><feFlood flood-opacity="0" result="BackgroundImageFix"/><feBlend in="SourceGraphic" in2="BackgroundImageFix"/><feGaussianBlur stdDeviation="60"/></filter><filter id="e" width="1459" height="280" x="-182" y="104" color-interpolation-filters="sRGB" filterUnits="userSpaceOnUse"><feFlood flood-opacity="0" result="BackgroundImageFix"/><feBlend in="SourceGraphic" in2="BackgroundImageFix"/><feGaussianBlur stdDeviation="40"/></filter><clipPath id="a"><path fill="#fff" d="M1024 200H0V0h1024z"/></clipPath></defs></svg>
