<svg xmlns="http://www.w3.org/2000/svg" viewBox="0 0 1024 200"><path fill="url(#a)" fill-rule="evenodd" d="M248.773-15.82c32.737-3.638 65.813 1.517 96.898 12.409 39.21 13.738 83.207 22.346 129.557 22.346 65.378 0 125.772-8.118 174.595-21.85 50.456-14.19 105.773-17.03 156.17-2.629 43.674 12.48 92.288 20.216 143.386 20.216C1136.39 14.672 1288-34.446 1288-95.036s-151.61-109.708-338.621-109.708c-14.356 0-28.516-.032-42.425-.063-87.1-.195-164.377-.368-218.449 7.406-32.284 4.641-65.626 6.848-97.82 1.613-35.445-5.764-74.471-8.954-115.457-8.954-12.463 0-24.757-.032-36.833-.064-73.537-.194-139.01-.366-185.733 6.913-9.553 1.488-19.163 2.68-28.83 2.809-15.457.206-30.974.33-46.454.33-201.24 0-364.378 40.967-364.378 91.502S-23.862-11.75 177.378-11.75c23.828 0 47.744-1.443 71.395-4.07" clip-path="url(#b)" clip-rule="evenodd" filter="url(#c)"/><defs><linearGradient id="a" x1="1288" x2="-187" y1="-92.966" y2="-92.966" gradientUnits="userSpaceOnUse"><stop stop-color="#F5B532"/><stop offset=".5" stop-color="#EA6644"/><stop offset="1" stop-color="#9F327E"/></linearGradient><clipPath id="b"><path fill="#fff" d="M0 0h1024v200H0z"/></clipPath><filter id="c" width="1795" height="543.802" x="-347" y="-364.867" color-interpolation-filters="sRGB" filterUnits="userSpaceOnUse"><feFlood flood-opacity="0" result="BackgroundImageFix"/><feBlend in="SourceGraphic" in2="BackgroundImageFix"/><feGaussianBlur stdDeviation="80"/></filter></defs></svg>
