<svg xmlns="http://www.w3.org/2000/svg" viewBox="0 0 448 176"><path fill="url(#a)" d="M100.653 54.844c31.135 0 62.808 7.822 91.742 19.317 9.793 3.89 20.054 6.081 30.611 6.081 4.717 0 9.371-.207 13.946-.61 54.681-4.82 125.937-2.919 180.83-2.919 76.824 0 139.102-40.655 139.102-90.806s-62.278-90.806-139.102-90.806c-5.897 0-11.714-.026-17.428-.052-15.014-.067-29.319-.132-42.506.291-42.521 1.366-92.299-.237-134.842-.237-5.12 0-10.17-.026-15.13-.053-21.514-.114-41.347-.219-57.914 1.906-16.429 2.108-32.745 6.415-49.309 6.415-82.667 0-149.682 33.908-149.682 75.737s67.015 75.736 149.682 75.736" filter="url(#b)"/><defs><linearGradient id="a" x1="556.884" x2="-49.029" y1="-12.379" y2="-12.379" gradientUnits="userSpaceOnUse"><stop stop-color="#F5B532"/><stop offset=".5" stop-color="#EA6644"/><stop offset="1" stop-color="#9F327E"/></linearGradient><filter id="b" width="893.713" height="473.042" x="-192.929" y="-248.9" color-interpolation-filters="sRGB" filterUnits="userSpaceOnUse"><feGaussianBlur stdDeviation="71.95"/></filter></defs></svg>
